# xmcd
#
# Track frame offsets: 
#        150
#        18152
#        36257
#        53560
#        72035
#        90180
#        107617
#        125940
#        144307
#        161970
#        179957
#        197915
#        216105
#        234347
#        252852
#        271310
#        289792
#        307530
#
# Disc length: 4358 seconds
#
# Revision: 2
# Processed by: cddbd v1.5.2PL0 Copyright (c) Steve Scherf et al.
# Submitted via: ExactAudioCopy v0.99pb5
#
DISCID=fc110412
DTITLE=Various Artist - Super Eurobeat Vol. 147
DYEAR=2004
DGENRE=Eurobeat
TTITLE0=Virginelle - I Just Wanna Be Your Angel
TTITLE1=Dark Angels - Right Now (Euro Power Mix)
TTITLE2=David Ropa - Stormy Night
TTITLE3=Pretty Woman - Cybersexy Girl
TTITLE4=Time Force - Time Of Love
TTITLE5=Meri - Never Let Me Down
TTITLE6=Electric Rock Band - Rock Me Tonight
TTITLE7=Nick Key - S.O.S.
TTITLE8=Priscilla - Bye To The Baby
TTITLE9=Dave Rodgers - Not Gonna Get Us
TTITLE10=Dany - Love Is A Lite
TTITLE11=Mako - In The Stars
TTITLE12=Mad Cow And The Bazookistaners - Rasputin, Pasternak And Molo
TTITLE12=tov
TTITLE13=Lolita - Heart Attack
TTITLE14=Mr. M - All That I Want
TTITLE15=Karen - Finally I See The Light
TTITLE16=Jean Love - Steel Blade
TTITLE17=Go 2 - Not For Sale
EXTD=YEAR: 2004
EXTT0=
EXTT1=
EXTT2=
EXTT3=
EXTT4=
EXTT5=
EXTT6=
EXTT7=
EXTT8=
EXTT9=
EXTT10=
EXTT11=
EXTT12=
EXTT13=
EXTT14=
EXTT15=
EXTT16=
EXTT17=
PLAYORDER=
